<svg width="646" height="208" viewBox="0 0 646 208" fill="none" xmlns="http://www.w3.org/2000/svg">
<path d="M179 97C179 143.852 140.365 182 92.5 182C44.6345 182 6 143.852 6 97C6 50.1479 44.6345 12 92.5 12C140.365 12 179 50.1479 179 97Z" fill="white" stroke="#087AE4" stroke-width="12"/>
<circle cx="92" cy="97" r="44" fill="white" stroke="#087AE4" stroke-width="12"/>
<path d="M63.5305 116.197L194.769 19.0846L214.989 177.145L63.5305 116.197Z" fill="white"/>
<path d="M121.305 66.2874L159.221 37.5277" stroke="#087AE4" stroke-width="12"/>
<line x1="102.036" y1="138.257" x2="155.5" y2="159.663" stroke="#087AE4" stroke-width="12"/>
<line x1="19.9951" y1="56.5" x2="74.0051" y2="56.5" stroke="#087AE4" stroke-width="12"/>
<line x1="10.9951" y1="45" x2="65.0051" y2="45" stroke="white" stroke-width="11"/>
<line x1="11.9951" y1="133.5" x2="66.0051" y2="133.5" stroke="#087AE4" stroke-width="12"/>
<line x1="7.99509" y1="147" x2="62.0051" y2="147" stroke="white" stroke-width="15"/>
<path d="M206.767 48.096L235.711 142.416H222.463L216.271 120.528H181.567L175.375 142.416H162.847L191.647 48.096H206.767ZM198.991 59.328L184.591 109.584H213.247L198.991 59.328ZM275.555 46.3679C279.107 46.3679 283.187 46.7039 287.795 47.376C292.403 47.9519 296.627 48.6239 300.467 49.392L300.179 60.1919C289.331 58.0799 281.123 57.0239 275.555 57.0239C268.931 57.0239 264.179 58.3679 261.299 61.056C258.515 63.648 257.123 68.0159 257.123 74.1599V115.92C257.123 122.064 258.515 126.528 261.299 129.312C264.179 132 268.931 133.344 275.555 133.344C279.875 133.344 285.491 132.672 292.403 131.328V99.504H274.403V87.984H304.643V138.816C293.123 142.368 283.427 144.144 275.555 144.144C264.515 144.144 256.643 141.792 251.939 137.088C247.235 132.384 244.883 125.04 244.883 115.056V75.4559C244.883 65.2799 247.283 57.8879 252.083 53.28C256.883 48.6719 264.707 46.3679 275.555 46.3679ZM337.718 48.096V142.416H325.478V48.096H337.718ZM419.849 48.096V59.184H392.489V142.416H380.249V59.184H352.889V48.096H419.849ZM484.705 48.096V59.184H447.265V88.992H481.825V99.936H447.265V131.328H484.705V142.416H435.025V48.096H484.705ZM533.884 46.3679C537.628 46.3679 541.66 46.7519 545.98 47.5199C550.396 48.192 552.988 48.576 553.756 48.672L553.468 59.4719C545.02 57.936 538.492 57.168 533.884 57.168C527.356 57.168 522.652 58.512 519.772 61.2C516.892 63.888 515.452 68.352 515.452 74.592V115.776C515.452 122.016 516.844 126.48 519.628 129.168C522.508 131.76 527.26 133.056 533.884 133.056C538.492 133.056 545.02 132.288 553.468 130.752L553.756 141.84C552.988 141.936 550.396 142.32 545.98 142.992C541.66 143.76 537.628 144.144 533.884 144.144C522.844 144.144 514.972 141.792 510.268 137.088C505.564 132.384 503.212 125.04 503.212 115.056V75.4559C503.212 65.472 505.564 58.128 510.268 53.424C514.972 48.7199 522.844 46.3679 533.884 46.3679ZM634.336 48.096V142.416H622.096V99.216H584.656V142.416H572.416V48.096H584.656V88.272H622.096V48.096H634.336Z" fill="url(#paint0_linear)"/>
<defs>
<linearGradient id="paint0_linear" x1="188.374" y1="89.3035" x2="703.249" y2="96.2775" gradientUnits="userSpaceOnUse">
<stop stop-color="#087AE4"/>
<stop offset="1" stop-color="#06C1EA" stop-opacity="0.84"/>
</linearGradient>
</defs>
</svg>
