<?xml version="1.0" standalone="no"?>
<!DOCTYPE svg PUBLIC "-//W3C//DTD SVG 20010904//EN"
 "http://www.w3.org/TR/2001/REC-SVG-20010904/DTD/svg10.dtd">
<svg version="1.0" xmlns="http://www.w3.org/2000/svg"
 width="198.000000pt" height="198.000000pt" viewBox="0 0 198.000000 198.000000"
 preserveAspectRatio="xMidYMid meet">
<metadata>
Created by potrace 1.11, written by Peter Selinger 2001-2013
</metadata>
<g transform="translate(0.000000,198.000000) scale(0.100000,-0.100000)"
fill="#000000" stroke="none">
<path d="M850 1924 c-148 -25 -286 -81 -398 -161 -67 -48 -172 -147 -172 -163
0 -12 160 -6 168 6 33 48 218 150 328 179 216 58 465 8 652 -130 34 -25 62
-49 62 -53 0 -5 -50 -48 -112 -97 -102 -80 -113 -86 -132 -75 -133 83 -269
108 -397 74 -53 -14 -113 -17 -358 -18 l-295 -1 -18 -30 c-24 -40 -63 -144
-84 -225 -23 -89 -27 -294 -7 -385 22 -102 58 -200 104 -281 l41 -71 71 2 c40
1 73 3 75 4 1 0 -11 20 -28 43 -16 22 -30 44 -30 47 0 4 87 6 193 6 177 -1
195 -3 234 -23 72 -37 168 -55 261 -48 l83 6 162 -66 c89 -36 166 -69 170 -74
5 -4 -18 -23 -50 -43 -141 -85 -287 -123 -442 -114 -116 6 -191 26 -291 74
-70 34 -82 37 -174 38 l-100 2 41 -36 c22 -20 72 -55 110 -77 286 -171 662
-161 941 24 66 43 192 159 192 176 0 6 10 22 23 36 37 41 115 169 133 219 15
43 18 52 24 76 1 6 6 20 11 32 20 53 30 246 17 328 -4 28 -8 64 -9 80 -3 56
-34 139 -88 240 -30 55 -62 106 -72 113 -11 7 -19 19 -19 26 0 19 -145 154
-215 201 -138 91 -310 142 -481 143 -54 0 -110 -2 -124 -4z m760 -425 c0 -12
17 -56 39 -98 38 -75 74 -173 88 -241 9 -46 9 -234 0 -285 -9 -47 -46 -165
-57 -180 -4 -5 -11 -21 -15 -34 -4 -14 -11 -29 -16 -35 -68 -84 -96 -132 -86
-145 10 -11 8 -13 -13 -6 -34 10 -289 114 -320 130 l-24 13 34 15 c43 17 120
99 150 157 42 82 53 125 55 219 2 78 -2 106 -22 168 -14 40 -32 80 -40 88 -21
22 -51 18 -78 -9 -22 -22 -23 -28 -13 -63 5 -21 13 -42 16 -48 20 -31 26 -139
12 -208 -6 -34 -23 -82 -38 -107 -24 -42 -42 -62 -106 -117 -14 -12 -28 -32
-30 -45 -2 -14 -9 -21 -17 -19 -8 3 -36 3 -64 1 -122 -9 -190 -3 -238 18 -149
66 -236 214 -224 382 9 140 85 253 212 316 53 26 70 29 150 28 77 0 98 -4 145
-27 31 -15 74 -46 97 -68 l43 -41 32 20 c18 12 42 29 53 39 11 10 49 41 85 68
35 28 88 69 118 93 60 48 72 51 72 21z m-1010 -138 c0 -2 -16 -28 -36 -58 -93
-141 -110 -335 -42 -490 11 -27 27 -56 36 -66 8 -9 12 -20 8 -24 -10 -11 -287
-11 -308 -1 -16 8 -41 76 -55 154 -9 52 -10 217 -1 280 9 61 53 195 67 203 10
7 331 9 331 2z"/>
</g>
</svg>
